<svg viewBox="0 0 254 59" fill="none" xmlns="http://www.w3.org/2000/svg"><path d="M73.397 2.338V0H57.669v2.338h7.596L53.71 44.417 42.69 2.337h6.848V0H29.423v2.338h6.206L24.18 44.417 13.16 2.337h6.848V0H0v2.338h5.029L19.9 59h2.567l13.91-50.874.32-1.892L49.431 59h2.46L67.512 2.338h5.885Zm5.777 11.911s-.107 0 0 0c-8.131 0-12.946 5.232-12.946 15.028v8.35c0 9.684 4.815 15.028 12.946 15.028 8.132 0 12.84-5.232 12.947-15.029v-8.349c-.108-9.684-4.815-15.028-12.947-15.028Zm6.527 27.608c0 8.015-2.14 9.24-6.634 9.24-4.386 0-6.633-1.225-6.633-9.018V24.936c0-7.904 2.247-9.017 6.633-9.017 4.494 0 6.634 1.224 6.634 9.24v16.698Zm66.763-28.276h-2.033l-11.02 36.736h-3.424v1.559h10.379v-1.559h-4.922l3.424-11.132h9.415l2.996 11.132h-3.959v1.559h12.518v-1.559h-3.423l-9.951-36.736Zm-7.275 24.045 4.386-14.583h.321l3.852 14.583h-8.559Zm-14.658 12.58V15.919h3.424V14.36h-9.63l-10.164 29.723-9.629-29.723h-9.523v1.559h3.317v34.287h-3.21v1.558h10.058v-1.558h-4.708V17.7l11.341 35.289h1.605l11.876-34.955v32.172h-3.638v1.558h12.732v-1.558h-3.851c.214-4.008 0 0 0 0Zm54.673-34.287h5.136v24.713L175.361 14.36h-8.774v1.559h3.103v34.287h-3.103v1.558h9.951v-1.558h-5.243V19.147l19.045 33.396v-.11.11h1.604V15.807h3.424V14.25h-10.164v1.67Zm14.016 25.604c-1.926 0-3.424 1.78-3.424 4.007 0 2.227 1.498 4.008 3.424 4.008s3.424-1.781 3.424-4.008c0-2.226-1.605-4.007-3.424-4.007Zm24.715-20.26c0-.112-.107-.112-.107-.223-.214-.223-.321-.446-.535-.557-.428-.334-1.177-.557-2.14-.557-2.567 0-3.851 1.336-4.921 3.117-.749 1.225-1.498 2.783-2.033 3.674 0-.557-.107-1.558-.749-3.117-.749-2.115-1.498-2.894-1.605-2.894h-6.099v1.558h3.852v24.713h-3.852v1.559h13.909v-1.559h-5.563V29.945c.642-1.558 1.498-3.562 2.889-5.677 1.391-1.781 2.139-2.338 2.888-2.338.321 0 .321 1.67.321 2.45v.444c0 3.563 1.07 4.565 2.247 4.565 1.284 0 2.247-.89 2.247-4.564.214-1.336-.107-2.672-.749-3.563.107 0 0 0 0 0Zm26.962 25.826c-.642 0-.749-.78-.749-.78V20.706h-4.6v21.04c-.107.11-2.996 6.01-7.169 6.01-2.14 0-2.782-1.224-2.782-2.56v-24.49h-8.559v1.558h4.066v20.483s-.214 6.568 6.74 6.568c4.708 0 7.276-4.453 7.811-5.232v.111c-.107 2.56.749 4.23 2.032 4.23h6.42v-1.558l-3.21.223Z" fill="#fff"/></svg>